<svg width="28" height="28" viewBox="0 0 28 28" fill="none" xmlns="http://www.w3.org/2000/svg">
<path d="M14.0001 13.9999C14.6417 13.9999 15.1912 13.7713 15.6486 13.3139C16.1051 12.8574 16.3334 12.3083 16.3334 11.6666C16.3334 11.0249 16.1051 10.4754 15.6486 10.0181C15.1912 9.56153 14.6417 9.33325 14.0001 9.33325C13.3584 9.33325 12.8093 9.56153 12.3527 10.0181C11.8954 10.4754 11.6667 11.0249 11.6667 11.6666C11.6667 12.3083 11.8954 12.8574 12.3527 13.3139C12.8093 13.7713 13.3584 13.9999 14.0001 13.9999ZM14.0001 25.6666C10.8695 23.0027 8.53153 20.5282 6.98608 18.2431C5.43986 15.9588 4.66675 13.8444 4.66675 11.8999C4.66675 8.98325 5.60514 6.65964 7.48191 4.92909C9.35791 3.19853 11.5306 2.33325 14.0001 2.33325C16.4695 2.33325 18.6422 3.19853 20.5182 4.92909C22.395 6.65964 23.3334 8.98325 23.3334 11.8999C23.3334 13.8444 22.5607 15.9588 21.0152 18.2431C19.469 20.5282 17.1306 23.0027 14.0001 25.6666Z" fill="#0E2D52"/>
</svg>
