<svg width="28" height="28" viewBox="0 0 28 28" fill="none" xmlns="http://www.w3.org/2000/svg">
<path d="M7.72334 12.5883L10.29 10.0217C10.6167 9.695 10.71 9.24 10.5817 8.83167C10.15 7.525 9.91667 6.125 9.91667 4.66667C9.91667 4.025 9.39167 3.5 8.75 3.5H4.66667C4.025 3.5 3.5 4.025 3.5 4.66667C3.5 15.6217 12.3783 24.5 23.3333 24.5C23.975 24.5 24.5 23.975 24.5 23.3333V19.2617C24.5 18.62 23.975 18.095 23.3333 18.095C21.8867 18.095 20.475 17.8617 19.1683 17.43C18.76 17.29 18.2933 17.395 17.9783 17.71L15.4117 20.2767C12.11 18.585 9.40333 15.89 7.72334 12.5883Z" fill="#0E2D52"/>
</svg>
