<svg width="28" height="28" viewBox="0 0 28 28" fill="none" xmlns="http://www.w3.org/2000/svg">
<path d="M23.3333 9.33341L13.9999 15.1667L4.66659 9.33341V7.00008L13.9999 12.8334L23.3333 7.00008M23.3333 4.66675H4.66659C3.37159 4.66675 2.33325 5.70508 2.33325 7.00008V21.0001C2.33325 21.6189 2.57908 22.2124 3.01667 22.65C3.45425 23.0876 4.04775 23.3334 4.66659 23.3334H23.3333C23.9521 23.3334 24.5456 23.0876 24.9832 22.65C25.4208 22.2124 25.6666 21.6189 25.6666 21.0001V7.00008C25.6666 6.38124 25.4208 5.78775 24.9832 5.35017C24.5456 4.91258 23.9521 4.66675 23.3333 4.66675Z" fill="#0E2D52"/>
</svg>
