<svg width="142" height="18" viewBox="0 0 142 18" fill="none" xmlns="http://www.w3.org/2000/svg">
<path d="M7.62742 12.0719C7.62742 12.6052 7.49942 13.1012 7.24342 13.5599C6.98742 14.0186 6.59809 14.3919 6.07542 14.6799C5.55276 14.9679 4.90742 15.1119 4.13942 15.1119C3.39276 15.1119 2.72609 14.9786 2.13942 14.7119C1.56342 14.4346 1.09942 14.0612 0.747422 13.5919C0.406089 13.1119 0.208755 12.5679 0.155422 11.9599H1.70742C1.73942 12.2799 1.84609 12.5946 2.02742 12.9039C2.21942 13.2026 2.48609 13.4532 2.82742 13.6559C3.17942 13.8479 3.60076 13.9439 4.09142 13.9439C4.73142 13.9439 5.22209 13.7732 5.56342 13.4319C5.90476 13.0906 6.07542 12.6532 6.07542 12.1199C6.07542 11.6612 5.95276 11.2879 5.70742 10.9999C5.47276 10.7119 5.17942 10.4879 4.82742 10.3279C4.47542 10.1572 3.99542 9.9759 3.38742 9.7839C2.67276 9.54924 2.09676 9.33057 1.65942 9.1279C1.23276 8.91457 0.864755 8.5999 0.555422 8.1839C0.256755 7.7679 0.107422 7.21857 0.107422 6.5359C0.107422 5.94924 0.246089 5.4319 0.523422 4.9839C0.811422 4.5359 1.21676 4.18924 1.73942 3.9439C2.27276 3.69857 2.89676 3.5759 3.61142 3.5759C4.72076 3.5759 5.60076 3.8479 6.25142 4.3919C6.90209 4.92524 7.28076 5.6079 7.38742 6.4399H5.81942C5.73409 5.9919 5.50476 5.59724 5.13142 5.2559C4.75809 4.91457 4.25142 4.7439 3.61142 4.7439C3.02476 4.7439 2.55542 4.89857 2.20342 5.2079C1.85142 5.50657 1.67542 5.93324 1.67542 6.4879C1.67542 6.92524 1.78742 7.28257 2.01142 7.5599C2.24609 7.82657 2.53409 8.0399 2.87542 8.1999C3.21676 8.34924 3.68609 8.5199 4.28342 8.7119C5.00876 8.94657 5.59009 9.17057 6.02742 9.3839C6.47542 9.59724 6.85409 9.92257 7.16342 10.3599C7.47276 10.7866 7.62742 11.3572 7.62742 12.0719Z" fill="white"/>
<path d="M12.6412 3.7199V10.4879C12.6412 11.5972 12.8865 12.4186 13.3772 12.9519C13.8678 13.4746 14.5452 13.7359 15.4092 13.7359C16.2625 13.7359 16.9292 13.4692 17.4092 12.9359C17.8892 12.4026 18.1292 11.5866 18.1292 10.4879V3.7199H19.5852V10.4879C19.5852 12.0239 19.2012 13.1812 18.4332 13.9599C17.6758 14.7279 16.6572 15.1119 15.3772 15.1119C14.1078 15.1119 13.0892 14.7279 12.3212 13.9599C11.5638 13.1812 11.1852 12.0239 11.1852 10.4879V3.7199H12.6412Z" fill="white"/>
<path d="M29.0273 9.1599C29.7206 9.30924 30.2806 9.6399 30.7073 10.1519C31.1446 10.6639 31.3633 11.2666 31.3633 11.9599C31.3633 12.8772 31.0486 13.6132 30.4193 14.1679C29.8006 14.7226 28.8993 14.9999 27.7153 14.9999H23.5233V3.7199H27.6513C28.782 3.7199 29.6406 3.97057 30.2273 4.4719C30.814 4.97324 31.1073 5.66124 31.1073 6.5359C31.1073 7.26124 30.91 7.8479 30.5153 8.2959C30.1313 8.7439 29.6353 9.0319 29.0273 9.1599ZM24.9793 8.6639H27.4113C28.126 8.6639 28.67 8.49857 29.0433 8.1679C29.4273 7.83724 29.6193 7.37324 29.6193 6.7759C29.6193 6.1999 29.4326 5.74657 29.0593 5.4159C28.686 5.08524 28.1153 4.9199 27.3473 4.9199H24.9793V8.6639ZM27.4433 13.7839C28.2113 13.7839 28.8033 13.6079 29.2193 13.2559C29.646 12.9039 29.8593 12.4079 29.8593 11.7679C29.8593 11.1386 29.6406 10.6479 29.2033 10.2959C28.7766 9.93324 28.1793 9.7519 27.4113 9.7519H24.9793V13.7839H27.4433Z" fill="white"/>
<path d="M41.9955 12.0719C41.9955 12.6052 41.8675 13.1012 41.6115 13.5599C41.3555 14.0186 40.9662 14.3919 40.4435 14.6799C39.9209 14.9679 39.2755 15.1119 38.5075 15.1119C37.7609 15.1119 37.0942 14.9786 36.5075 14.7119C35.9315 14.4346 35.4675 14.0612 35.1155 13.5919C34.7742 13.1119 34.5769 12.5679 34.5235 11.9599H36.0755C36.1075 12.2799 36.2142 12.5946 36.3955 12.9039C36.5875 13.2026 36.8542 13.4532 37.1955 13.6559C37.5475 13.8479 37.9689 13.9439 38.4595 13.9439C39.0995 13.9439 39.5902 13.7732 39.9315 13.4319C40.2729 13.0906 40.4435 12.6532 40.4435 12.1199C40.4435 11.6612 40.3209 11.2879 40.0755 10.9999C39.8409 10.7119 39.5475 10.4879 39.1955 10.3279C38.8435 10.1572 38.3635 9.9759 37.7555 9.7839C37.0409 9.54924 36.4649 9.33057 36.0275 9.1279C35.6009 8.91457 35.2329 8.5999 34.9235 8.1839C34.6249 7.7679 34.4755 7.21857 34.4755 6.5359C34.4755 5.94924 34.6142 5.4319 34.8915 4.9839C35.1795 4.5359 35.5849 4.18924 36.1075 3.9439C36.6409 3.69857 37.2649 3.5759 37.9795 3.5759C39.0889 3.5759 39.9689 3.8479 40.6195 4.3919C41.2702 4.92524 41.6489 5.6079 41.7555 6.4399H40.1875C40.1022 5.9919 39.8729 5.59724 39.4995 5.2559C39.1262 4.91457 38.6195 4.7439 37.9795 4.7439C37.3929 4.7439 36.9235 4.89857 36.5715 5.2079C36.2195 5.50657 36.0435 5.93324 36.0435 6.4879C36.0435 6.92524 36.1555 7.28257 36.3795 7.5599C36.6142 7.82657 36.9022 8.0399 37.2435 8.1999C37.5849 8.34924 38.0542 8.5199 38.6515 8.7119C39.3769 8.94657 39.9582 9.17057 40.3955 9.3839C40.8435 9.59724 41.2222 9.92257 41.5315 10.3599C41.8409 10.7866 41.9955 11.3572 41.9955 12.0719Z" fill="white"/>
<path d="M50.6253 3.6079C52.0013 3.6079 53.1373 3.94924 54.0333 4.6319C54.9293 5.3039 55.548 6.22657 55.8893 7.3999H54.3533C54.0653 6.65324 53.6013 6.06124 52.9613 5.6239C52.3213 5.1759 51.5373 4.9519 50.6093 4.9519C49.8733 4.9519 49.212 5.13324 48.6253 5.4959C48.0493 5.8479 47.5906 6.3599 47.2493 7.0319C46.9186 7.69324 46.7533 8.4719 46.7533 9.3679C46.7533 10.2532 46.9186 11.0266 47.2493 11.6879C47.5906 12.3492 48.0493 12.8612 48.6253 13.2239C49.212 13.5759 49.8733 13.7519 50.6093 13.7519C51.5373 13.7519 52.3213 13.5332 52.9613 13.0959C53.6013 12.6479 54.0653 12.0506 54.3533 11.3039H55.8893C55.548 12.4772 54.9293 13.4052 54.0333 14.0879C53.1373 14.7599 52.0013 15.0959 50.6253 15.0959C49.5693 15.0959 48.636 14.8559 47.8253 14.3759C47.0146 13.8852 46.38 13.2079 45.9213 12.3439C45.4733 11.4692 45.2493 10.4772 45.2493 9.3679C45.2493 8.2479 45.4733 7.25057 45.9213 6.3759C46.38 5.50124 47.0146 4.8239 47.8253 4.3439C48.636 3.85324 49.5693 3.6079 50.6253 3.6079Z" fill="white"/>
<path d="M65.5004 14.9999L62.5564 10.3919H60.9724V14.9999H59.5164V3.7199H63.2284C64.5084 3.7199 65.4684 4.02924 66.1084 4.6479C66.7484 5.2559 67.0684 6.06657 67.0684 7.0799C67.0684 7.99724 66.8124 8.73857 66.3004 9.3039C65.7884 9.85857 65.0471 10.2052 64.0764 10.3439L67.1484 14.9999H65.5004ZM60.9724 9.3359H63.1004C64.7538 9.3359 65.5804 8.61057 65.5804 7.1599C65.5804 5.70924 64.7538 4.9839 63.1004 4.9839H60.9724V9.3359Z" fill="white"/>
<path d="M71.9805 3.7199V14.9999H70.5245V3.7199H71.9805Z" fill="white"/>
<path d="M81.5054 9.1599C82.1988 9.30924 82.7588 9.6399 83.1854 10.1519C83.6228 10.6639 83.8414 11.2666 83.8414 11.9599C83.8414 12.8772 83.5268 13.6132 82.8974 14.1679C82.2788 14.7226 81.3774 14.9999 80.1934 14.9999H76.0014V3.7199H80.1294C81.2601 3.7199 82.1188 3.97057 82.7054 4.4719C83.2921 4.97324 83.5854 5.66124 83.5854 6.5359C83.5854 7.26124 83.3881 7.8479 82.9934 8.2959C82.6094 8.7439 82.1134 9.0319 81.5054 9.1599ZM77.4574 8.6639H79.8894C80.6041 8.6639 81.1481 8.49857 81.5214 8.1679C81.9054 7.83724 82.0974 7.37324 82.0974 6.7759C82.0974 6.1999 81.9108 5.74657 81.5374 5.4159C81.1641 5.08524 80.5934 4.9199 79.8254 4.9199H77.4574V8.6639ZM79.9214 13.7839C80.6894 13.7839 81.2814 13.6079 81.6974 13.2559C82.1241 12.9039 82.3374 12.4079 82.3374 11.7679C82.3374 11.1386 82.1188 10.6479 81.6814 10.2959C81.2548 9.93324 80.6574 9.7519 79.8894 9.7519H77.4574V13.7839H79.9214Z" fill="white"/>
<path d="M88.7937 4.9039V8.7599H93.0817V9.8799H88.7937V13.8159H93.5617V14.9999H87.3377V3.7199H93.5617V4.9039H88.7937Z" fill="white"/>
<path d="M122.61 17.3999L141.27 9.9199C141.462 9.84306 141.627 9.71488 141.742 9.5513C141.858 9.38773 141.92 9.19598 141.92 8.9999C141.92 8.80383 141.858 8.61208 141.742 8.4485C141.627 8.28493 141.462 8.15675 141.27 8.0799L122.61 0.599903C122.448 0.533998 122.271 0.506746 122.096 0.520606C121.92 0.534467 121.751 0.589003 121.603 0.679295C121.456 0.769587 121.335 0.892795 121.251 1.0378C121.167 1.18281 121.123 1.34506 121.123 1.5099L121.112 6.1199C121.112 6.6199 121.508 7.0499 122.043 7.1099L137.153 8.9999L122.043 10.8799C121.508 10.9499 121.112 11.3799 121.112 11.8799L121.123 16.4899C121.123 17.1999 121.904 17.6899 122.61 17.3999Z" fill="white"/>
</svg>
